<?xml version="1.0" encoding="UTF-8"?>
<svg id="Capa_1" xmlns="http://www.w3.org/2000/svg" version="1.1" viewBox="0 0 800 703.3">
  <!-- Generator: Adobe Illustrator 29.1.0, SVG Export Plug-In . SVG Version: 2.1.0 Build 142)  -->
  <defs>
    <style>
      .st0 {
        fill: none;
        stroke: #000;
        stroke-miterlimit: 10;
      }
    </style>
  </defs>
  <path class="st0" d="M735.4,65.3C693.5,23.4,638,.5,578.8.5s-114.8,23.1-156.7,65l-21.9,21.9-22.2-22.2C336.1,23.2,280.3,0,221.2,0S106.5,23.1,64.8,64.8C22.9,106.7-.2,162.3,0,221.5c0,59.2,23.2,114.6,65.1,156.5l318.5,318.5c4.4,4.4,10.3,6.8,16.1,6.8s11.7-2.2,16.1-6.6l319.2-318c41.9-41.9,65-97.5,65-156.7.2-59.2-22.7-114.8-64.6-156.7h0Z"/>
</svg>