<?xml version="1.0" encoding="UTF-8"?>
<svg id="Layer_1" xmlns="http://www.w3.org/2000/svg" version="1.1" viewBox="0 0 100 100">
  <path d="M22.3,28.2c0-.6,0-1.3,0-1.9h1.9s0,1.9,0,1.9c-.6,0-1.3,0-1.9,0,0,.6,0,1.3,0,1.9,1.9,0,3.8,0,5.7,0,0,3.2,0,6.3,0,9.5-.6,0-1.3,0-1.9,0,0-2.5,0-5.1,0-7.6h-3.8c0-.6,0-1.3,0-1.9-.3,0-1.9,0-1.9,0v-1.8c.6,0,1.3,0,1.9,0Z"/>
  <path d="M64.1,26.3c0,.6,0,1.3,0,1.9-.6,0-1.3,0-1.9,0,0-.6,0-1.3,0-1.9.6,0,1.3,0,1.9,0Z"/>
  <path d="M67.9,24.4c.6,0,1.3,0,1.9,0,0,.6,0,1.3,0,1.9-.6,0-1.3,0-1.9,0,0-.6,0-1.3,0-1.9Z"/>
  <path d="M67.9,26.3c0,.6,0,1.3,0,1.9-.6,0-1.3,0-1.9,0,0-.6,0-1.3,0-1.9.6,0,1.3,0,1.9,0Z"/>
  <path d="M66,24.4c0,.6,0,1.3,0,1.9-.6,0-1.3,0-1.9,0,0-.6,0-1.3,0-1.9.6,0,1.3,0,1.9,0Z"/>
  <path d="M69.8,26.3c.6,0,1.3,0,1.9,0,0,.6,0,1.3,0,1.9-.6,0-1.3,0-1.9,0,0-.6,0-1.3,0-1.9Z"/>
  <path d="M71.7,51c0,1.3,0,2.5,0,3.8-.6,0-1.3,0-1.9,0,0-1.3,0-2.5,0-3.8.6,0,1.3,0,1.9,0Z"/>
  <path d="M29.9,66.1c0,.3,0,1.9,0,1.9h-1.8c0-.6,0-1.3,0-1.9.6,0,1.3,0,1.9,0Z"/>
  <path d="M33.7,66.1c0,1.9,0,3.8,0,5.7-.6,0-1.3,0-1.9,0,0,.3,0,1.9,0,1.9h-1.8c0-.6,0-1.3,0-1.9-.6,0-1.3,0-1.9,0v-1.9s1.9,0,1.9,0c0,.6,0,1.3,0,1.9.6,0,1.3,0,1.9,0,0-1.9,0-3.8,0-5.7.6,0,1.3,0,1.9,0Z"/>
  <path d="M62.2,28.2c0,.6,0,1.3,0,1.9-.6,0-1.3,0-1.9,0,0-.6,0-1.3,0-1.9.6,0,1.3,0,1.9,0Z"/>
  <path d="M67.9,71.8c0,.3,0,1.9,0,1.9h-1.8c0-.6,0-1.3,0-1.9.6,0,1.3,0,1.9,0Z"/>
  <path d="M66,20.6c.6,0,1.3,0,1.9,0,0,1.3,0,2.5,0,3.8-.6,0-1.3,0-1.9,0,0-1.3,0-2.5,0-3.8Z"/>
  <path d="M64.1,20.6c0,.6,0,1.3,0,1.9h-1.8c-.2,0,0-1.6,0-1.9.6,0,1.3,0,1.9,0Z"/>
  <path d="M71.7,28.2c.6,0,1.3,0,1.9,0v5.7h1.9c0,.6,0,1.3,0,1.9.6,0,1.3,0,1.9,0,0,3.2,0,6.3,0,9.5.6,0,1.3,0,1.9,0v1.9s-1.9,0-1.9,0c0-.6,0-1.3,0-1.9-.6,0-1.3,0-1.9,0,0-3.2,0-6.3,0-9.5-1.3,0-2.5,0-3.8,0,0-2.5,0-5.1,0-7.6Z"/>
  <path d="M56.5,77.5c0,.6,0,1.3,0,1.9h-1.8c-.2,0,0-1.6,0-1.9.6,0,1.3,0,1.9,0Z"/>
  <path d="M64.1,71.8c0,.6,0,1.3,0,1.9-.6,0-1.3,0-1.9,0,0-.6,0-1.3,0-1.9.6,0,1.3,0,1.9,0Z"/>
  <path d="M60.3,20.6c0,1.3,0,2.5,0,3.8h1.9c0,.6,0,1.3,0,1.9-.6,0-1.3,0-1.9,0,0,.6,0,1.3,0,1.9-.6,0-1.3,0-1.9,0,0-2.5,0-5.1,0-7.6.6,0,1.3,0,1.9,0Z"/>
  <path d="M52.7,20.6c0,1.9,0,3.8,0,5.7-.6,0-1.3,0-1.9,0,0-1.9,0-3.8,0-5.7.6,0,1.3,0,1.9,0Z"/>
  <path d="M60.3,71.8c0,.6,0,1.3,0,1.9-.6,0-1.3,0-1.9,0,0-.6,0-1.3,0-1.9.6,0,1.3,0,1.9,0Z"/>
  <path d="M43.2,20.6c0,1.3,0,2.5,0,3.8h1.9c0,.6,0,1.3,0,1.9-.6,0-1.3,0-1.9,0,0,.6,0,1.3,0,1.9-.6,0-1.3,0-1.9,0,0-2.5,0-5.1,0-7.6.6,0,1.3,0,1.9,0Z"/>
  <path d="M39.4,20.6c0,2.5,0,5.1,0,7.6.6,0,1.3,0,1.9,0,0,.3,0,1.9,0,1.9h1.8c0-.6,0-1.3,0-1.9.6,0,1.3,0,1.9,0,0,.6,0,1.3,0,1.9h1.9s0-1.9,0-1.9c-.6,0-1.3,0-1.9,0,0-.6,0-1.3,0-1.9.6,0,1.3,0,1.9,0v-3.8h-1.9c0-.6,0-1.3,0-1.9,1.3,0,2.5,0,3.8,0,0,1.9,0,3.8,0,5.7.6,0,1.3,0,1.9,0,0,.6,0,1.3,0,1.9-.6,0-1.3,0-1.9,0v1.9s1.9,0,1.9,0c0-.6,0-1.3,0-1.9.6,0,1.3,0,1.9,0,0,.6,0,1.3,0,1.9.6,0,1.3,0,1.9,0,0,.6,0,1.3,0,1.9h1.9s0-1.9,0-1.9c-.6,0-1.3,0-1.9,0,0-.6,0-1.3,0-1.9-.6,0-1.3,0-1.9,0,0-.6,0-1.3,0-1.9.6,0,1.3,0,1.9,0,0-1.9,0-3.8,0-5.7.6,0,1.3,0,1.9,0,0,2.5,0,5.1,0,7.6.6,0,1.3,0,1.9,0,0,.6,0,1.3,0,1.9.6,0,1.3,0,1.9,0,0,1.3,0,2.5,0,3.8.6,0,1.3,0,1.9,0,0,1.3,0,2.5,0,3.8.6,0,1.3,0,1.9,0,0,1.3,0,2.5,0,3.8h1.9v-3.8c-.6,0-1.3,0-1.9,0,0-1.3,0-2.5,0-3.8-.6,0-1.3,0-1.9,0,0-1.3,0-2.5,0-3.8.6,0,1.3,0,1.9,0,0-.6,0-1.3,0-1.9.6,0,1.3,0,1.9,0,0,2.5,0,5.1,0,7.6h1.8c0-2.5,0-5.1,0-7.6.6,0,1.3,0,1.9,0,0,2.5,0,5.1,0,7.6.6,0,1.3,0,1.9,0,0,.6,0,1.3,0,1.9h1.9s0,9.5,0,9.5h1.9c0,.6,0,1.3,0,1.9-.6,0-1.3,0-1.9,0,0,.6,0,1.3,0,1.9-.6,0-1.3,0-1.9,0,0-.6,0-1.3,0-1.9h-1.8c-.2,0,0,1.6,0,1.9-.6,0-1.3,0-1.9,0v3.8c.6,0,1.3,0,1.9,0,0,.6,0,1.3,0,1.9-.3,0-1.9,0-1.9,0v1.8c.6,0,1.3,0,1.9,0,0,2.5,0,5.1,0,7.6-.6,0-1.3,0-1.9,0,0-.6,0-1.3,0-1.9h-3.8c0,.6,0,1.3,0,1.9-.6,0-1.3,0-1.9,0,0,1.9,0,3.8,0,5.7-.6,0-1.3,0-1.9,0,0-1.3,0-2.5,0-3.8-1.3,0-2.5,0-3.8,0,0-1.3,0-2.5,0-3.8-.6,0-1.3,0-1.9,0,0-.3,0-1.9,0-1.9h-1.8c0,.6,0,1.3,0,1.9-.6,0-1.3,0-1.9,0v1.9s1.9,0,1.9,0c0-.6,0-1.3,0-1.9.6,0,1.3,0,1.9,0,0,1.3,0,2.5,0,3.8.6,0,1.3,0,1.9,0,0,.6,0,1.3,0,1.9h1.9c0,.6,0,1.3,0,1.9-1.3,0-2.5,0-3.8,0,0-.6,0-1.3,0-1.9h-1.9s0-1.9,0-1.9h-1.8c0,1.3,0,2.5,0,3.8-1.3,0-2.5,0-3.8,0,0-.6,0-1.3,0-1.9.6,0,1.3,0,1.9,0v-1.8c0-.2-1.6,0-1.9,0,0-.6,0-1.3,0-1.9.6,0,1.3,0,1.9,0v-1.9s-1.9,0-1.9,0c0,.6,0,1.3,0,1.9-.6,0-1.3,0-1.9,0,0-.6,0-1.3,0-1.9-.6,0-1.3,0-1.9,0,0-.6,0-1.3,0-1.9-.6,0-1.3,0-1.9,0,0-1.3,0-2.5,0-3.8h-1.9v3.8c.6,0,1.3,0,1.9,0,0,.6,0,1.3,0,1.9.6,0,1.3,0,1.9,0,0,.6,0,1.3,0,1.9-.6,0-1.3,0-1.9,0,0,2.5,0,5.1,0,7.6-.6,0-1.3,0-1.9,0,0-3.2,0-6.3,0-9.5-.6,0-1.3,0-1.9,0,0-.6,0-1.3,0-1.9h-1.9s0,1.9,0,1.9c.6,0,1.3,0,1.9,0,0,3.2,0,6.3,0,9.5-.6,0-1.3,0-1.9,0,0,1.3,0,2.5,0,3.8.6,0,1.3,0,1.9,0,0,.6,0,1.3,0,1.9.6,0,1.3,0,1.9,0v1.9s-1.9,0-1.9,0c0-.6,0-1.3,0-1.9-.6,0-1.3,0-1.9,0,0-.6,0-1.3,0-1.9-.6,0-1.3,0-1.9,0v-3.8c.6,0,1.3,0,1.9,0,0-2.5,0-5.1,0-7.6-.6,0-1.3,0-1.9,0v-5.7c-.6,0-1.3,0-1.9,0,0-.6,0-1.3,0-1.9.6,0,1.3,0,1.9,0,0-.6,0-1.3,0-1.9.6,0,1.3,0,1.9,0v-5.7h-1.9c0,1.9,0,3.8,0,5.7-.6,0-1.3,0-1.9,0,0,.6,0,1.3,0,1.9-.6,0-1.3,0-1.9,0,0-.6,0-1.3,0-1.9-1.3,0-2.5,0-3.8,0,0-.6,0-1.3,0-1.9h1.9s0-1.8,0-1.8h-1.9v-3.9c-.6,0-1.3,0-1.9,0,0-.6,0-1.3,0-1.9,1.3,0,2.5,0,3.8,0,0,1.3,0,2.5,0,3.8.6,0,1.3,0,1.9,0,0,1.3,0,2.5,0,3.8h1.9v-3.8c-.6,0-1.3,0-1.9,0,0-1.3,0-2.5,0-3.8-.6,0-1.3,0-1.9,0,0-.6,0-1.3,0-1.9h-1.9c0-1.3,0-2.5,0-3.8.6,0,1.3,0,1.9,0,0,.6,0,1.3,0,1.9.6,0,1.3,0,1.9,0,0,.6,0,1.3,0,1.9.6,0,1.3,0,1.9,0,0,.6,0,1.3,0,1.9.6,0,1.3,0,1.9,0,0,.6,0,1.3,0,1.9h1.9s0-1.9,0-1.9c-.6,0-1.3,0-1.9,0,0-.6,0-1.3,0-1.9-.6,0-1.3,0-1.9,0,0-.6,0-1.3,0-1.9-.6,0-1.3,0-1.9,0,0-.6,0-1.3,0-1.9.3,0,1.9,0,1.9,0v-1.8c-.6,0-1.3,0-1.9,0,0-5.1,0-10.1,0-15.2h1.9v9.5c.6,0,1.3,0,1.9,0,0,.6,0,1.3,0,1.9-.3,0-1.9,0-1.9,0v1.8c.6,0,1.3,0,1.9,0,0,.6,0,1.3,0,1.9h1.9s0-1.9,0-1.9c-.6,0-1.3,0-1.9,0,0-.6,0-1.3,0-1.9.6,0,1.3,0,1.9,0,0-.6,0-1.3,0-1.9.6,0,1.3,0,1.9,0,0-.6,0-1.3,0-1.9.6,0,1.3,0,1.9,0,0,.6,0,1.3,0,1.9.6,0,1.3,0,1.9,0,0,.3,0,1.9,0,1.9h1.8c0-.6,0-1.3,0-1.9.6,0,1.3,0,1.9,0v-1.9s-1.9,0-1.9,0c0,.6,0,1.3,0,1.9-.6,0-1.3,0-1.9,0,0-.6,0-1.3,0-1.9-.6,0-1.3,0-1.9,0,0-.6,0-1.3,0-1.9-.6,0-1.3,0-1.9,0,0-3.2,0-6.3,0-9.5.6,0,1.3,0,1.9,0ZM48.9,33.9c-.6,0-1.3,0-1.9,0v1.9s1.9,0,1.9,0c0-.6,0-1.3,0-1.9.6,0,1.3,0,1.9,0v-1.9s-1.9,0-1.9,0c0,.6,0,1.3,0,1.9ZM54.6,33.9h-1.9v1.9h1.9v-1.9ZM58.4,33.9h-1.9v1.9h1.9v-1.9ZM39.4,35.8h-1.9v3.8h1.9v-3.8ZM45.1,37.7h-1.9v1.9h1.9v-1.9ZM52.7,37.7h-1.9v1.9h1.9v-1.9ZM58.4,37.7h-1.9v1.9h1.9v-1.9ZM69.8,41.5c0-1.3,0-2.5,0-3.8h-1.9v3.8c.6,0,1.3,0,1.9,0,0,1.9,0,3.8,0,5.7h1.9v-5.7c-.6,0-1.3,0-1.9,0ZM35.6,43.4c0-.6,0-1.3,0-1.9h-1.9s0,1.9,0,1.9c.6,0,1.3,0,1.9,0,0,.6,0,1.3,0,1.9h1.9s0-1.9,0-1.9c-.6,0-1.3,0-1.9,0ZM41.3,41.5h-1.9v1.9h1.9v-1.9ZM60.3,41.5h-1.9v1.9h1.9v-1.9ZM64.1,43.4h-1.9v1.9h1.9v-1.9ZM67.9,43.4h-1.9v1.9h1.9v-1.9ZM45.1,45.3h-1.9v1.9h1.9v-1.9ZM58.4,47.2h-1.9v1.9h1.9v-1.9ZM64.1,47.2h-1.9v1.9h1.9v-1.9ZM67.9,47.2h-1.9v1.9h1.9v-1.9ZM39.4,49.1h-1.9v1.9h1.9v-1.9ZM66,50.9h-1.9v1.9h1.9v-1.9ZM43.2,52.8h-1.9v1.9h1.9v-1.9ZM62.2,54.7c0-.6,0-1.3,0-1.9h-1.9s0,1.9,0,1.9c.6,0,1.3,0,1.9,0,0,.6,0,1.3,0,1.9.6,0,1.3,0,1.9,0,0,.6,0,1.3,0,1.9-.6,0-1.3,0-1.9,0v1.8c0,.2,1.6,0,1.9,0,0,.6,0,1.3,0,1.9h3.8v-1.9c-1.3,0-2.5,0-3.8,0,0-.6,0-1.3,0-1.9.6,0,1.3,0,1.9,0v-1.8c0-.2-1.6,0-1.9,0,0-.6,0-1.3,0-1.9-.6,0-1.3,0-1.9,0ZM39.4,54.7h-1.9v1.9h1.9v-1.9ZM48.9,54.7h-1.9v1.9h1.9v-1.9ZM56.5,54.7h-1.9v1.9h1.9v-1.9ZM45.1,56.6h-1.9v1.9h1.9v-1.9ZM60.3,56.6h-1.9v1.9h1.9v-1.9ZM37.5,58.5h-1.9v1.9h1.9v-1.9ZM50.8,58.5h-1.9v3.8h1.9v-3.8ZM56.5,58.5h-1.9v1.9h1.9v-1.9ZM60.3,62.3c0-.6,0-1.3,0-1.9h-1.9s0,1.9,0,1.9c.6,0,1.3,0,1.9,0,0,.6,0,1.3,0,1.9-.6,0-1.3,0-1.9,0v1.9s1.9,0,1.9,0c0-.6,0-1.3,0-1.9.3,0,1.9,0,1.9,0v-1.8c-.6,0-1.3,0-1.9,0Z"/>
  <path d="M22.3,35.8c0-.6,0-1.3,0-1.9h1.9s0,1.9,0,1.9c-.6,0-1.3,0-1.9,0,0,.6,0,1.3,0,1.9.6,0,1.3,0,1.9,0,0,.6,0,1.3,0,1.9-.6,0-1.3,0-1.9,0,0-.6,0-1.3,0-1.9-1.3,0-2.5,0-3.8,0v-1.8c0-.2,3.4,0,3.8,0Z"/>
  <path d="M64.1,18.7c.6,0,1.3,0,1.9,0,0,.6,0,1.3,0,1.9-.6,0-1.3,0-1.9,0,0-.6,0-1.3,0-1.9Z"/>
  <path d="M62.2,18.7c0,.6,0,1.3,0,1.9-.6,0-1.3,0-1.9,0,0-.6,0-1.3,0-1.9.6,0,1.3,0,1.9,0Z"/>
  <path d="M75.5,51c0,.6,0,1.3,0,1.9h1.9c0,.6,0,1.3,0,1.9.6,0,1.3,0,1.9,0,0,.6,0,1.3,0,1.9.6,0,1.3,0,1.9,0,0,1.3,0,2.5,0,3.8.6,0,1.3,0,1.9,0v1.9s-1.9,0-1.9,0c0-.6,0-1.3,0-1.9-.6,0-1.3,0-1.9,0,0-1.3,0-2.5,0-3.8-.6,0-1.3,0-1.9,0,0-.6,0-1.3,0-1.9-1.3,0-2.5,0-3.8,0,0-1.3,0-2.5,0-3.8.6,0,1.3,0,1.9,0Z"/>
  <path d="M75.5,49.1c1.3,0,2.5,0,3.8,0,0,.6,0,1.3,0,1.9,1.3,0,2.5,0,3.8,0v3.8h-1.9s0-1.9,0-1.9h-1.9c0-.6,0-1.3,0-1.9-1.3,0-2.5,0-3.8,0,0-.6,0-1.3,0-1.9Z"/>
  <path d="M54.6,71.8c0,1.9,0,3.8,0,5.7-.6,0-1.3,0-1.9,0v-3.8c-.6,0-1.3,0-1.9,0,0-.6,0-1.3,0-1.9,1.3,0,2.5,0,3.8,0Z"/>
  <path d="M56.5,18.7c.6,0,1.3,0,1.9,0,0,.6,0,1.3,0,1.9-.6,0-1.3,0-1.9,0,0-.6,0-1.3,0-1.9Z"/>
  <path d="M52.7,13c0-.6,0-1.3,0-1.9h1.9s0,1.9,0,1.9c-.6,0-1.3,0-1.9,0,0,.6,0,1.3,0,1.9,1.3,0,2.5,0,3.8,0,0,1.3,0,2.5,0,3.8-.6,0-1.3,0-1.9,0,0-.6,0-1.3,0-1.9h-1.9c0-.6,0-1.3,0-1.9-.3,0-1.9,0-1.9,0v-1.8c.6,0,1.3,0,1.9,0Z"/>
  <path d="M31.8,60.4c0,1.9,0,3.8,0,5.7-.6,0-1.3,0-1.9,0,0-1.9,0-3.8,0-5.7.6,0,1.3,0,1.9,0Z"/>
  <path d="M54.6,18.7c0,.6,0,1.3,0,1.9-.6,0-1.3,0-1.9,0,0-.6,0-1.3,0-1.9.6,0,1.3,0,1.9,0Z"/>
  <path d="M28,60.4c0,1.9,0,3.8,0,5.7-.6,0-1.3,0-1.9,0v-3.8h-1.9s0-1.9,0-1.9c1.3,0,2.5,0,3.8,0Z"/>
  <path d="M75.5,58.5c.3,0,1.9,0,1.9,0v1.8c-.6,0-1.3,0-1.9,0,0-.6,0-1.3,0-1.9Z"/>
  <path d="M67.9,68c.6,0,1.3,0,1.9,0,0,1.3,0,2.5,0,3.8.6,0,1.3,0,1.9,0v1.9s-1.9,0-1.9,0c0-.6,0-1.3,0-1.9-.6,0-1.3,0-1.9,0,0-1.3,0-2.5,0-3.8Z"/>
  <path d="M47,14.9c0-.6,0-1.3,0-1.9h1.9s0,1.9,0,1.9c-.6,0-1.3,0-1.9,0,0,.6,0,1.3,0,1.9h1.9c0,.6,0,1.3,0,1.9-1.3,0-2.5,0-3.8,0,0-1.3,0-2.5,0-3.8.6,0,1.3,0,1.9,0Z"/>
  <path d="M18.5,43.4c-.6,0-1.3,0-1.9,0v-3.8h1.9c0,1.3,0,2.5,0,3.8.6,0,1.3,0,1.9,0,0,1.3,0,2.5,0,3.8.6,0,1.3,0,1.9,0,0,.6,0,1.3,0,1.9-.6,0-1.3,0-1.9,0,0,.6,0,1.3,0,1.9-.6,0-1.3,0-1.9,0,0,.6,0,1.3,0,1.9.6,0,1.3,0,1.9,0v3.8c-.6,0-1.3,0-1.9,0,0,.6,0,1.3,0,1.9h-1.9s0-1.9,0-1.9c.6,0,1.3,0,1.9,0,0-1.3,0-2.5,0-3.8-.3,0-1.9,0-1.9,0v-1.8c.6,0,1.3,0,1.9,0,0-.6,0-1.3,0-1.9.6,0,1.3,0,1.9,0,0-.6,0-1.3,0-1.9-.6,0-1.3,0-1.9,0,0-1.3,0-2.5,0-3.8Z"/>
  <path d="M22.3,39.6c0,.6,0,1.3,0,1.9-.6,0-1.3,0-1.9,0v-1.8c0-.2,1.6,0,1.9,0Z"/>
  <path d="M48.9,18.7c.6,0,1.3,0,1.9,0,0,.6,0,1.3,0,1.9-.6,0-1.3,0-1.9,0,0-.6,0-1.3,0-1.9Z"/>
  <path d="M26.1,39.6c0,.6,0,1.3,0,1.9-.6,0-1.3,0-1.9,0,0-.6,0-1.3,0-1.9.6,0,1.3,0,1.9,0Z"/>
  <path d="M45.1,18.7c0,.6,0,1.3,0,1.9-.6,0-1.3,0-1.9,0,0-.6,0-1.3,0-1.9.6,0,1.3,0,1.9,0Z"/>
  <path d="M29.9,39.6c0,.6,0,1.3,0,1.9-.6,0-1.3,0-1.9,0,0-.6,0-1.3,0-1.9.6,0,1.3,0,1.9,0Z"/>
  <path d="M24.2,49.1c0,2.5,0,5.1,0,7.6.6,0,1.3,0,1.9,0,0,.6,0,1.3,0,1.9-1.3,0-2.5,0-3.8,0,0,1.9,0,3.8,0,5.7.6,0,1.3,0,1.9,0v1.9s-1.9,0-1.9,0c0-.6,0-1.3,0-1.9-.6,0-1.3,0-1.9,0v-5.7c.6,0,1.3,0,1.9,0,0-3.2,0-6.3,0-9.5.6,0,1.3,0,1.9,0Z"/>
  <path d="M73.6,54.7c0,.6,0,1.3,0,1.9-.6,0-1.3,0-1.9,0,0-.6,0-1.3,0-1.9.6,0,1.3,0,1.9,0Z"/>
  <path d="M39.4,18.7c-.6,0-1.3,0-1.9,0v-1.9s1.9,0,1.9,0c0,.6,0,1.3,0,1.9.6,0,1.3,0,1.9,0,0,.6,0,1.3,0,1.9-.6,0-1.3,0-1.9,0,0-.6,0-1.3,0-1.9Z"/>
  <path d="M24.2,41.5c0,1.9,0,3.8,0,5.7-.6,0-1.3,0-1.9,0,0-1.9,0-3.8,0-5.7.6,0,1.3,0,1.9,0Z"/>
  <path d="M33.7,20.6c0-1.3,0-2.5,0-3.8h1.9v3.8c-.6,0-1.3,0-1.9,0,0,.6,0,1.3,0,1.9.6,0,1.3,0,1.9,0v7.6c.6,0,1.3,0,1.9,0,0,.6,0,1.3,0,1.9-.6,0-1.3,0-1.9,0,0,.6,0,1.3,0,1.9-.6,0-1.3,0-1.9,0,0-3.8,0-7.6,0-11.4-.4,0-3.8,0-3.8,0v-1.8c1.3,0,2.5,0,3.8,0Z"/>
  <path d="M45.1,66.1c0,.6,0,1.3,0,1.9.6,0,1.3,0,1.9,0,0,.6,0,1.3,0,1.9-.6,0-1.3,0-1.9,0,0,1.3,0,2.5,0,3.8-.6,0-1.3,0-1.9,0,0-2.5,0-5.1,0-7.6.6,0,1.3,0,1.9,0Z"/>
  <path d="M73.6,58.5c0,.6,0,1.3,0,1.9.6,0,1.3,0,1.9,0,0,1.3,0,2.5,0,3.8.6,0,1.3,0,1.9,0,0-.6,0-1.3,0-1.9h1.9s0,1.9,0,1.9c-.6,0-1.3,0-1.9,0,0,.6,0,1.3,0,1.9.6,0,1.3,0,1.9,0v1.9s-1.9,0-1.9,0c0-.6,0-1.3,0-1.9-.6,0-1.3,0-1.9,0,0-.6,0-1.3,0-1.9-.6,0-1.3,0-1.9,0,0,1.3,0,2.5,0,3.8.6,0,1.3,0,1.9,0v3.8h-1.9c0-1.3,0-2.5,0-3.8-.6,0-1.3,0-1.9,0v-3.8c.6,0,1.3,0,1.9,0,0-.6,0-1.3,0-1.9h-1.9c0-1.3,0-2.5,0-3.8.6,0,1.3,0,1.9,0Z"/>
  <path d="M39.4,73.7c0,.6,0,1.3,0,1.9h-1.8c-.2,0,0-1.6,0-1.9.6,0,1.3,0,1.9,0Z"/>
  <path d="M43.2,73.7c0,1.3,0,2.5,0,3.8.6,0,1.3,0,1.9,0,0,.6,0,1.3,0,1.9.6,0,1.3,0,1.9,0,0,.6,0,1.3,0,1.9.6,0,1.3,0,1.9,0v1.9s-1.9,0-1.9,0c0-.6,0-1.3,0-1.9-.6,0-1.3,0-1.9,0,0-.6,0-1.3,0-1.9-.6,0-1.3,0-1.9,0,0,.6,0,1.3,0,1.9h-1.9s0-1.9,0-1.9c.6,0,1.3,0,1.9,0,0-.6,0-1.3,0-1.9-.6,0-1.3,0-1.9,0,0-1.3,0-2.5,0-3.8.6,0,1.3,0,1.9,0Z"/>
  <path d="M67.9,66.1c0,.6,0,1.3,0,1.9-.6,0-1.3,0-1.9,0,0,1.3,0,2.5,0,3.8-.6,0-1.3,0-1.9,0,0-1.9,0-3.8,0-5.7,1.3,0,2.5,0,3.8,0Z"/>
  <path d="M50.8,73.7c0,1.9,0,3.8,0,5.7.6,0,1.3,0,1.9,0v1.9s-1.9,0-1.9,0c0-.6,0-1.3,0-1.9-.6,0-1.3,0-1.9,0v-3.8h-3.8c0-.6,0-1.3,0-1.9,1.9,0,3.8,0,5.7,0Z"/>
  <path d="M29.9,58.5c0,.6,0,1.3,0,1.9-.6,0-1.3,0-1.9,0,0-.6,0-1.3,0-1.9.6,0,1.3,0,1.9,0Z"/>
  <path d="M73.6,56.6c.6,0,1.3,0,1.9,0,0,.6,0,1.3,0,1.9-.6,0-1.3,0-1.9,0,0-.6,0-1.3,0-1.9Z"/>
  <path d="M62.2,73.7c0,.6,0,1.3,0,1.9h-1.8c-.2,0,0-1.6,0-1.9.6,0,1.3,0,1.9,0Z"/>
  <path d="M71.7,56.6c0,.6,0,1.3,0,1.9-.6,0-1.3,0-1.9,0,0-.6,0-1.3,0-1.9.6,0,1.3,0,1.9,0Z"/>
  <path d="M62.2,18.7c0-1.3,0-2.5,0-3.8h1.8c.2,0,0,3.4,0,3.8-.6,0-1.3,0-1.9,0Z"/>
  <path d="M58.4,73.7c0,1.3,0,2.5,0,3.8,1.3,0,2.5,0,3.8,0v1.9h-3.8c0-.6,0-1.3,0-1.9-.6,0-1.3,0-1.9,0,0-1.3,0-2.5,0-3.8.6,0,1.3,0,1.9,0Z"/>
  <path d="M81.1,43.4c-.6,0-1.3,0-1.9,0v-5.7h1.9c0,1.9,0,3.8,0,5.7.6,0,1.3,0,1.9,0v5.7h-1.9c0-1.9,0-3.8,0-5.7Z"/>
  <polygon points="28 73.7 28 77.5 26.1 77.5 26.1 75.6 24.2 75.6 24.2 73.7 28 73.7"/>
  <rect x="67.9" y="14.9" width="1.9" height="3.8"/>
  <path d="M22.3,20.6c-.6,0-1.3,0-1.9,0v-1.9s1.9,0,1.9,0c0,.6,0,1.3,0,1.9.6,0,1.3,0,1.9,0,0,.6,0,1.3,0,1.9.6,0,1.3,0,1.9,0,0-.6,0-1.3,0-1.9h1.9s0,1.9,0,1.9c-.6,0-1.3,0-1.9,0,0,.6,0,1.3,0,1.9.6,0,1.3,0,1.9,0v3.8h-1.9c0-1.3,0-2.5,0-3.8-.6,0-1.3,0-1.9,0,0-.6,0-1.3,0-1.9-.6,0-1.3,0-1.9,0,0-.6,0-1.3,0-1.9Z"/>
  <path d="M71.7,22.5c-.6,0-1.3,0-1.9,0v-1.9s1.9,0,1.9,0c0,.6,0,1.3,0,1.9.6,0,1.3,0,1.9,0,0,.6,0,1.3,0,1.9.6,0,1.3,0,1.9,0,0,.6,0,1.3,0,1.9.6,0,1.3,0,1.9,0,0,.6,0,1.3,0,1.9.3,0,1.9,0,1.9,0v1.8c-.6,0-1.3,0-1.9,0,0,.6,0,1.3,0,1.9.6,0,1.3,0,1.9,0,0,.6,0,1.3,0,1.9,1.3,0,2.5,0,3.8,0v1.9h-3.8c0-.6,0-1.3,0-1.9-.6,0-1.3,0-1.9,0,0-.6,0-1.3,0-1.9-.6,0-1.3,0-1.9,0v-1.8c0-.2,1.6,0,1.9,0,0-.6,0-1.3,0-1.9-.6,0-1.3,0-1.9,0,0-.6,0-1.3,0-1.9-.6,0-1.3,0-1.9,0,0-.6,0-1.3,0-1.9-.6,0-1.3,0-1.9,0,0-.6,0-1.3,0-1.9Z"/>
  <rect x="64.1" y="75.6" width="3.8" height="1.9"/>
  <rect x="24.2" y="68" width="1.9" height="3.8"/>
  <path d="M83,28.2c-.6,0-1.3,0-1.9,0v-1.9s1.9,0,1.9,0c0,.6,0,1.3,0,1.9.6,0,1.3,0,1.9,0,0,.6,0,1.3,0,1.9.6,0,1.3,0,1.9,0v1.9s-1.9,0-1.9,0c0-.6,0-1.3,0-1.9-.6,0-1.3,0-1.9,0,0-.6,0-1.3,0-1.9Z"/>
  <rect x="7.1" y="30.1" width="1.9" height="1.9"/>
  <path d="M14.7,32c-.6,0-1.3,0-1.9,0v-1.9s1.9,0,1.9,0c0,.6,0,1.3,0,1.9.6,0,1.3,0,1.9,0v1.9s-1.9,0-1.9,0c0-.6,0-1.3,0-1.9Z"/>
  <rect x="18.5" y="32" width="1.9" height="1.9"/>
  <path d="M86.8,35.8c-.6,0-1.3,0-1.9,0v-1.9s1.9,0,1.9,0c0,.6,0,1.3,0,1.9.6,0,1.3,0,1.9,0v1.9s-1.9,0-1.9,0c0-.6,0-1.3,0-1.9Z"/>
  <rect x="14.7" y="35.8" width="1.9" height="1.9"/>
  <path d="M9,39.6c-.6,0-1.3,0-1.9,0v-1.9s1.9,0,1.9,0c0,.6,0,1.3,0,1.9.6,0,1.3,0,1.9,0v1.9s-1.9,0-1.9,0c0-.6,0-1.3,0-1.9Z"/>
  <rect x="12.8" y="39.6" width="1.9" height="1.9"/>
  <rect x="83" y="39.6" width="1.9" height="1.9"/>
  <rect x="86.8" y="39.6" width="1.9" height="1.9"/>
  <path d="M12.8,45.3c-.6,0-1.3,0-1.9,0v-1.9s1.9,0,1.9,0c0,.6,0,1.3,0,1.9.6,0,1.3,0,1.9,0,0,.6,0,1.3,0,1.9.6,0,1.3,0,1.9,0v1.9s-1.9,0-1.9,0c0-.6,0-1.3,0-1.9-.6,0-1.3,0-1.9,0,0-.6,0-1.3,0-1.9Z"/>
  <rect x="14.7" y="26.3" width="1.9" height="1.9"/>
  <path d="M86.8,45.3c-.6,0-1.3,0-1.9,0v-1.9s1.9,0,1.9,0c0,.6,0,1.3,0,1.9.6,0,1.3,0,1.9,0v1.9s-1.9,0-1.9,0c0-.6,0-1.3,0-1.9Z"/>
  <rect x="90.6" y="43.4" width="1.9" height="1.9"/>
  <path d="M12.8,51c-.6,0-1.3,0-1.9,0v-1.9s1.9,0,1.9,0c0,.6,0,1.3,0,1.9.6,0,1.3,0,1.9,0v1.9s-1.9,0-1.9,0c0-.6,0-1.3,0-1.9Z"/>
  <rect x="18.5" y="24.4" width="1.9" height="1.9"/>
  <rect x="84.9" y="49.1" width="1.9" height="1.9"/>
  <rect x="88.7" y="49.1" width="1.9" height="1.9"/>
  <rect x="7.1" y="50.9" width="1.9" height="1.9"/>
  <path d="M81.1,22.5c-.6,0-1.3,0-1.9,0v-1.9s1.9,0,1.9,0c0,.6,0,1.3,0,1.9.6,0,1.3,0,1.9,0v1.9s-1.9,0-1.9,0c0-.6,0-1.3,0-1.9Z"/>
  <rect x="75.4" y="20.6" width="1.9" height="1.9"/>
  <rect x="84.9" y="52.8" width="1.9" height="1.9"/>
  <rect x="88.7" y="52.8" width="1.9" height="1.9"/>
  <rect x="12.8" y="54.7" width="1.9" height="1.9"/>
  <rect x="9" y="56.6" width="1.9" height="1.9"/>
  <rect x="83" y="56.6" width="1.9" height="1.9"/>
  <path d="M14.7,60.4c-.6,0-1.3,0-1.9,0v-1.9s1.9,0,1.9,0c0,.6,0,1.3,0,1.9.6,0,1.3,0,1.9,0v1.9s-1.9,0-1.9,0c0-.6,0-1.3,0-1.9Z"/>
  <rect x="16.6" y="20.6" width="1.9" height="1.9"/>
  <rect x="88.7" y="58.5" width="1.9" height="1.9"/>
  <rect x="84.9" y="60.4" width="1.9" height="1.9"/>
  <rect x="12.8" y="64.2" width="1.9" height="1.9"/>
  <path d="M18.5,66.1c-.6,0-1.3,0-1.9,0v-1.9s1.9,0,1.9,0c0,.6,0,1.3,0,1.9.6,0,1.3,0,1.9,0,0,.6,0,1.3,0,1.9.6,0,1.3,0,1.9,0v1.9s-1.9,0-1.9,0c0-.6,0-1.3,0-1.9-.6,0-1.3,0-1.9,0,0-.6,0-1.3,0-1.9Z"/>
  <path d="M73.6,16.8c-.6,0-1.3,0-1.9,0v-1.9s1.9,0,1.9,0c0,.6,0,1.3,0,1.9.6,0,1.3,0,1.9,0v1.9s-1.9,0-1.9,0c0-.6,0-1.3,0-1.9Z"/>
  <rect x="29.9" y="16.8" width="1.9" height="1.9"/>
  <rect x="81.1" y="64.2" width="1.9" height="1.9"/>
  <rect x="86.8" y="64.2" width="1.9" height="1.9"/>
  <rect x="26.1" y="16.8" width="1.9" height="1.9"/>
  <rect x="58.4" y="14.9" width="1.9" height="1.9"/>
  <path d="M39.4,13c-.6,0-1.3,0-1.9,0v-1.9s1.9,0,1.9,0c0,.6,0,1.3,0,1.9.6,0,1.3,0,1.9,0,0,.6,0,1.3,0,1.9.6,0,1.3,0,1.9,0v1.9s-1.9,0-1.9,0c0-.6,0-1.3,0-1.9-.6,0-1.3,0-1.9,0,0-.6,0-1.3,0-1.9Z"/>
  <rect x="33.7" y="13" width="1.9" height="1.9"/>
  <rect x="26.1" y="13" width="1.9" height="1.9"/>
  <rect x="66" y="11.1" width="1.9" height="1.9"/>
  <rect x="62.2" y="11.1" width="1.9" height="1.9"/>
  <rect x="81.1" y="68" width="1.9" height="1.9"/>
  <path d="M56.5,9.2c-.6,0-1.3,0-1.9,0v-1.9s1.9,0,1.9,0c0,.6,0,1.3,0,1.9.6,0,1.3,0,1.9,0,0,.6,0,1.3,0,1.9.6,0,1.3,0,1.9,0v1.9s-1.9,0-1.9,0c0-.6,0-1.3,0-1.9-.6,0-1.3,0-1.9,0,0-.6,0-1.3,0-1.9Z"/>
  <rect x="77.3" y="69.9" width="1.9" height="1.9"/>
  <rect x="84.9" y="69.9" width="1.9" height="1.9"/>
  <rect x="12.8" y="71.8" width="1.9" height="1.9"/>
  <rect x="18.5" y="71.8" width="1.9" height="1.9"/>
  <rect x="43.2" y="11.1" width="1.9" height="1.9"/>
  <rect x="81.1" y="71.8" width="1.9" height="1.9"/>
  <rect x="29.9" y="11.1" width="1.9" height="1.9"/>
  <path d="M48.9,9.2c-.6,0-1.3,0-1.9,0v-1.9s1.9,0,1.9,0c0,.6,0,1.3,0,1.9.6,0,1.3,0,1.9,0v1.9s-1.9,0-1.9,0c0-.6,0-1.3,0-1.9Z"/>
  <rect x="73.6" y="73.7" width="1.9" height="1.9"/>
  <rect x="16.6" y="75.6" width="1.9" height="1.9"/>
  <rect x="29.9" y="75.6" width="1.9" height="1.9"/>
  <path d="M71.7,77.5c-.6,0-1.3,0-1.9,0v-1.9s1.9,0,1.9,0c0,.6,0,1.3,0,1.9.6,0,1.3,0,1.9,0,0,.6,0,1.3,0,1.9.6,0,1.3,0,1.9,0v1.9s-1.9,0-1.9,0c0-.6,0-1.3,0-1.9-.6,0-1.3,0-1.9,0,0-.6,0-1.3,0-1.9Z"/>
  <rect x="43.2" y="7.3" width="1.9" height="1.9"/>
  <rect x="20.4" y="79.4" width="1.9" height="1.9"/>
  <rect x="31.8" y="79.4" width="1.9" height="1.9"/>
  <rect x="37.5" y="7.3" width="1.9" height="1.9"/>
  <path d="M67.9,81.3c-.6,0-1.3,0-1.9,0v-1.9s1.9,0,1.9,0c0,.6,0,1.3,0,1.9.6,0,1.3,0,1.9,0v1.9s-1.9,0-1.9,0c0-.6,0-1.3,0-1.9Z"/>
  <rect x="77.3" y="79.4" width="1.9" height="1.9"/>
  <rect x="28" y="81.3" width="1.9" height="1.9"/>
  <rect x="54.6" y="81.3" width="1.9" height="1.9"/>
  <rect x="58.4" y="81.3" width="1.9" height="1.9"/>
  <rect x="62.2" y="81.3" width="1.9" height="1.9"/>
  <path d="M37.5,85.1c-.6,0-1.3,0-1.9,0v-1.9s1.9,0,1.9,0c0,.6,0,1.3,0,1.9.6,0,1.3,0,1.9,0v1.9s-1.9,0-1.9,0c0-.6,0-1.3,0-1.9Z"/>
  <rect x="41.3" y="83.2" width="1.9" height="1.9"/>
  <path d="M52.7,85.1c-.6,0-1.3,0-1.9,0v-1.9s1.9,0,1.9,0c0,.6,0,1.3,0,1.9.6,0,1.3,0,1.9,0v1.9s-1.9,0-1.9,0c0-.6,0-1.3,0-1.9Z"/>
  <rect x="28" y="85.1" width="1.9" height="1.9"/>
  <path d="M47,87c-.6,0-1.3,0-1.9,0v-1.9s1.9,0,1.9,0c0,.6,0,1.3,0,1.9.6,0,1.3,0,1.9,0v1.9s-1.9,0-1.9,0c0-.6,0-1.3,0-1.9Z"/>
  <rect x="58.4" y="85.1" width="1.9" height="1.9"/>
  <rect x="64.1" y="85.1" width="1.9" height="1.9"/>
  <rect x="33.7" y="88.9" width="1.9" height="1.9"/>
  <rect x="52.7" y="88.9" width="1.9" height="1.9"/>
  <rect x="39.4" y="90.8" width="1.9" height="1.9"/>
  <rect x="58.4" y="90.8" width="1.9" height="1.9"/>
</svg>